<?xml version="1.0" encoding="UTF-8" standalone="no"?>
<!-- Created with Inkscape (http://www.inkscape.org/) -->

<svg
   xmlns:dc="http://purl.org/dc/elements/1.1/"
   xmlns:cc="http://creativecommons.org/ns#"
   xmlns:rdf="http://www.w3.org/1999/02/22-rdf-syntax-ns#"
   xmlns:svg="http://www.w3.org/2000/svg"
   xmlns="http://www.w3.org/2000/svg"
   xmlns:sodipodi="http://sodipodi.sourceforge.net/DTD/sodipodi-0.dtd"
   xmlns:inkscape="http://www.inkscape.org/namespaces/inkscape"
   width="210mm"
   height="297mm"
   viewBox="0 0 210 297"
   version="1.1"
   id="svg1254"
   inkscape:version="0.92.3 (2405546, 2018-03-11)"
   sodipodi:docname="budgie.svg">
  <defs
     id="defs1248" />
  <sodipodi:namedview
     id="base"
     pagecolor="#ffffff"
     bordercolor="#666666"
     borderopacity="1.0"
     inkscape:pageopacity="0.0"
     inkscape:pageshadow="2"
     inkscape:zoom="0.7"
     inkscape:cx="200.64236"
     inkscape:cy="631.61184"
     inkscape:document-units="mm"
     inkscape:current-layer="layer1"
     showgrid="false"
     inkscape:window-width="1920"
     inkscape:window-height="986"
     inkscape:window-x="-11"
     inkscape:window-y="-11"
     inkscape:window-maximized="1" />
  <metadata
     id="metadata1251">
    <rdf:RDF>
      <cc:Work
         rdf:about="">
        <dc:format>image/svg+xml</dc:format>
        <dc:type
           rdf:resource="http://purl.org/dc/dcmitype/StillImage" />
        <dc:title />
      </cc:Work>
    </rdf:RDF>
  </metadata>
  <g
     inkscape:label="Layer 1"
     inkscape:groupmode="layer"
     id="layer1">
    <g
       id="g2409"
       transform="translate(242.12505,-12.162393)">
      <g
         id="g919">
        <g
           id="g2337"
           transform="translate(0.27060076,-0.19310091)">
          <g
             transform="translate(0.03389916,0.55276983)"
             id="g2289">
            <g
               id="g2237"
               transform="translate(-0.51024073,-0.10973981)">
              <g
                 transform="translate(0.77144038,-0.11369346)"
                 id="g2195">
                <g
                   id="g2151"
                   transform="translate(-1.0003777,-0.59926078)">
                  <g
                     transform="translate(-0.86677543,-0.17092916)"
                     id="g2109">
                    <g
                       id="g2076"
                       transform="translate(0.18565576,0.38895996)">
                      <g
                         transform="translate(0.63409293,-0.34958416)"
                         id="g2048">
                        <g
                           id="g2018"
                           transform="translate(-17.822923,6.5594135)">
                          <g
                             id="g1957">
                            <g
                               transform="translate(-226.85178,-20.131486)"
                               id="g1995">
                              <g
                                 id="g1974"
                                 transform="translate(-141.65285,29.399648)">
                                <g
                                   id="g1901"
                                   transform="translate(144.00893,-3.7797619)">
                                <g
                                   transform="translate(-174.59115,25.751014)"
                                   id="g1893">
                                <path
                                   style="fill:#46b1db;fill-opacity:1;stroke:none;stroke-width:0.26458332px;stroke-linecap:butt;stroke-linejoin:miter;stroke-opacity:1"
                                   d="m 241.02046,87.552548 5.29166,14.457592 0.28349,8.97694 0.14195,2.11362 0.32241,2.20207 0.19676,1.91001 0.85078,2.18427 1.60116,3.87369 2.93456,5.95369 2.21889,4.67448 2.97828,4.30245 4.11863,4.44128 4.76381,3.30723 6.61307,3.15345 7.37205,2.5162 12.76639,1.52047 10.00667,0.18042 6.80357,1.88988 6.80357,-1.13393 3.3073,-2.17336 2.17336,-8.12649 8.12649,-0.94494 4.25223,-1.22842 1.98437,-2.55134 -0.0945,-3.40179 -2.17336,-3.87425 -4.34673,-7.37054 -3.1183,-7.46503 -3.96875,-6.52009 -3.68527,-4.81919 -3.30729,-3.68527 -4.53572,-6.3311 -10.39433,-10.394352 -4.20261,-3.106838 -6.66421,-4.169202 -2.07887,-1.32292 -1.90927,-0.696852 -1.87049,-0.153588 0.7416,6.05832 -0.17463,4.714 -0.66146,6.23661 -2.99277,3.15402 -4.56676,1.66517 -6.99255,-0.28348 -3.40179,3.779762 -4.8192,2.64584 -5.38616,0.18898 -5.10268,-1.79538 -2.62571,-5.221762 -3.89437,-5.17258 z"
                                   id="path1810"
                                   inkscape:connector-curvature="0"
                                   sodipodi:nodetypes="ccccccccccccccccccccccccccccccccccccccccccccccccccc" />
                                <path
                                   style="fill:#c4d9e9;fill-opacity:1;stroke:none;stroke-width:0.26458332px;stroke-linecap:butt;stroke-linejoin:miter;stroke-opacity:1"
                                   d="m 241.02046,87.552548 -1.41742,-3.59077 -1.32291,-6.52009 v -3.401786 l -0.18899,-3.212796 -1.22842,-1.700892 -1.88988,-5.575149 -0.18544,-4.119234 0.13819,-4.57422 1.65365,-4.063244 2.46374,-2.821457 2.59169,-2.61195 3.63802,-2.551339 4.06324,-1.181177 5.95313,-1.133927 3.45606,-0.02292 2.21358,0.589886 3.42878,1.171564 2.14637,1.474269 3.28846,2.474198 1.28972,1.659156 0.38276,1.252807 -0.99219,-0.283484 2.55134,3.02381 0.66146,3.779763 2.66976,1.899288 2.33842,2.352944 1.91304,2.45339 1.01628,1.704347 1.35114,2.645952 0.7048,2.273471 0.77066,3.602993 0.10271,3.194848 0.7416,6.05832 -0.17463,4.714 -0.0341,3.641928 -0.6274,2.594682 -1.1679,1.855223 -1.82487,1.298797 -2.06145,1.189935 -2.50531,0.475235 -3.49344,0.237309 -3.49911,-0.520789 -3.40179,3.779761 -2.06445,1.49936 -2.75475,1.14648 -5.38616,0.18898 -2.61501,-0.3785 -2.48767,-1.41688 -1.99905,-2.567712 -1.47711,-3.410001 -3.04392,-4.416628 z"
                                   id="path1812"
                                   inkscape:connector-curvature="0"
                                   sodipodi:nodetypes="ccccccccccccccccccccccccccccccccccccccccccccccccccccc" />
                                <ellipse
                                   style="opacity:1;fill:#090e12;fill-opacity:1;fill-rule:evenodd;stroke:none;stroke-width:0.51418132;stroke-linecap:butt;stroke-linejoin:round;stroke-miterlimit:4;stroke-dasharray:none;stroke-opacity:1"
                                   id="path1818"
                                   cx="154.57159"
                                   cy="178.19011"
                                   rx="1.3735147"
                                   ry="3.5622716"
                                   transform="matrix(0.87057779,-0.4920308,0.58297933,0.81248698,0,0)" />
                                <ellipse
                                   style="opacity:1;fill:#090e12;fill-opacity:1;fill-rule:evenodd;stroke:none;stroke-width:0.42158747;stroke-linecap:butt;stroke-linejoin:round;stroke-miterlimit:4;stroke-dasharray:none;stroke-opacity:1"
                                   id="path1826"
                                   cx="239.10133"
                                   cy="119.2828"
                                   rx="1.4535239"
                                   ry="3.6185746"
                                   transform="matrix(0.96810469,-0.25054602,0.33852861,0.9409561,0,0)" />
                                </g>
                                <path
                                   sodipodi:nodetypes="ccccccccccc"
                                   inkscape:connector-curvature="0"
                                   id="path1836"
                                   d="m 74.366815,97.617555 9.419761,7.378885 6.738721,6.70074 1.802102,-2.21922 -0.44398,-7.13685 -0.899084,-7.119484 0.580396,-5.541571 -4.252232,0.94494 h -5.764136 l -3.212798,3.77977 z"
                                   style="fill:#a99948;fill-opacity:1;stroke:none;stroke-width:0.26458332px;stroke-linecap:butt;stroke-linejoin:miter;stroke-opacity:1" />
                                </g>
                                <g
                                   id="g1925"
                                   transform="translate(143.73317,-2.9969699)">
                                <path
                                   inkscape:connector-curvature="0"
                                   id="path1903"
                                   d="m 72.19618,94.777194 2.446395,2.057569 1.792455,-0.497841 1.87494,-1.492913 1.80407,-2.572467 1.503391,-1.002263 3.040192,-0.46772 2.539058,0.167042 2.405428,-0.501128 1.904293,-0.968854 0.33409,-0.601356 -0.668176,-1.670433 -1.00226,-1.102487 0.251492,-0.772405 -0.05104,-1.298936 -0.297695,-1.051649 -0.804792,-1.086507 -0.818532,-0.970513 -0.885313,-0.917078 -1.293464,-0.452523 -1.446048,-0.165538 -2.271792,0.233862 -1.971111,1.436574 -1.269532,1.336347 -0.634764,1.302938 -0.334087,0.868627 -1.603616,-0.734991 -2.138156,-0.03341 -2.037932,0.701582 -1.703842,1.336347 -0.801809,1.469983 -0.267269,2.204974 0.400904,1.703842 0.935443,2.204974 z"
                                   style="fill:#9193bd;fill-opacity:1;stroke:none;stroke-width:0.26458332px;stroke-linecap:butt;stroke-linejoin:miter;stroke-opacity:1"
                                   sodipodi:nodetypes="ccccccccccccccccccccccccccccccccccc" />
                                <ellipse
                                   transform="matrix(0.86300509,-0.50519522,0.65482458,0.7557809,0,0)"
                                   ry="0.66344076"
                                   rx="1.1977538"
                                   cy="114.34813"
                                   cx="-0.9976843"
                                   id="path1905"
                                   style="opacity:1;fill:#5d2c36;fill-opacity:1;fill-rule:evenodd;stroke:none;stroke-width:0.37809187;stroke-linecap:butt;stroke-linejoin:round;stroke-miterlimit:4;stroke-dasharray:none;stroke-opacity:1" />
                                <ellipse
                                   transform="matrix(0.86300509,-0.50519523,0.65482458,0.7557809,0,0)"
                                   ry="0.66344076"
                                   rx="1.1977537"
                                   cy="115.56368"
                                   cx="8.8225756"
                                   id="path1905-9"
                                   style="opacity:1;fill:#5d2c36;fill-opacity:1;fill-rule:evenodd;stroke:none;stroke-width:0.37809187;stroke-linecap:butt;stroke-linejoin:round;stroke-miterlimit:4;stroke-dasharray:none;stroke-opacity:1" />
                                </g>
                                <g
                                   id="g1940"
                                   transform="translate(143.94722,-3.2282479)">
                                <path
                                   sodipodi:nodetypes="ccccccccccccccccccccccc"
                                   inkscape:connector-curvature="0"
                                   id="path1931"
                                   d="m 126.80895,120.76547 -0.91972,2.14209 -1.15162,6.67781 -0.33408,8.0849 0.8018,8.88671 3.00679,6.34766 4.94448,7.68399 5.27858,5.01131 4.74403,3.0736 3.20723,1.26953 6.48129,-1.1359 7.55037,-2.00452 1.80406,-2.53906 0.13364,-4.40995 -5.34539,-9.95579 -5.81312,-9.68852 -3.14041,-5.61266 -4.27631,-5.27857 -3.60814,-3.54132 -4.47677,-3.67496 -3.74177,-2.07133 -3.00678,-0.3341 z"
                                   style="fill:#738f9e;fill-opacity:1;stroke:none;stroke-width:0.26458332px;stroke-linecap:butt;stroke-linejoin:miter;stroke-opacity:1" />
                                <path
                                   inkscape:connector-curvature="0"
                                   id="path1933"
                                   d="m 125.62984,132.01339 3.77976,-0.66146 1.27567,-0.94494 1.79538,0.51972 1.65365,-0.66146 2.78757,0.0472 1.79539,-0.28348 0.18899,-0.75596 1.27567,0.0473 0.0472,-1.22842 -0.23623,-1.03944 -0.89769,-0.75595 -0.94494,0.47247 -0.42523,1.37017 -1.5119,0.14174 -1.93713,0.14174 -1.79539,0.85044 -1.79538,-0.0945 -2.07887,0.89769 -1.93713,0.56697 z"
                                   style="fill:#0e1116;fill-opacity:1;stroke:none;stroke-width:0.26458332px;stroke-linecap:butt;stroke-linejoin:miter;stroke-opacity:1" />
                                <path
                                   inkscape:connector-curvature="0"
                                   id="path1935"
                                   d="m 127.51972,126.76897 1.41741,0.51972 1.55915,-0.61421 2.74033,0.37797 2.78757,-0.66145 0.47247,-0.66146 -3.40178,-1.08669 v 0.8977 l -3.68527,-0.0945 -0.28348,0.66145 z"
                                   style="fill:#122027;fill-opacity:1;stroke:none;stroke-width:0.26458332px;stroke-linecap:butt;stroke-linejoin:miter;stroke-opacity:1" />
                                </g>
                              </g>
                            </g>
                            <path
                               inkscape:connector-curvature="0"
                               id="path1997"
                               d="m -98.822906,151.53856 1.837476,0.46772 1.536801,-0.20045 1.77066,-0.735 1.436574,-0.33408 0.233862,-0.86863 1.703843,-0.50113 2.271789,-2.60588 1.570209,-2.03793 0.935443,-1.5702 0.400904,-1.67044 -0.133633,-1.20271 0.801809,-0.60136 0.567947,-1.80407 -0.367496,-1.60361 -0.467722,-0.60136 -0.06682,1.5368 -0.634764,1.06908 -0.100227,0.90203 -0.701583,0.73499 -0.300677,2.47225 -1.737252,0.66817 -0.634764,2.90656 -1.837479,1.77066 -1.737251,0.56794 -0.734992,1.43658 -1.703842,0.33408 -0.501132,0.93545 -2.639287,-0.50113 z"
                               style="fill:#1c2425;fill-opacity:1;stroke:none;stroke-width:0.26458332px;stroke-linecap:butt;stroke-linejoin:miter;stroke-opacity:1" />
                          </g>
                        </g>
                        <path
                           style="fill:#243039;fill-opacity:1;stroke:none;stroke-width:0.26458332px;stroke-linecap:butt;stroke-linejoin:miter;stroke-opacity:1"
                           d="m -108.21931,150.109 0.87407,-0.0473 0.8977,-0.82682 0.44884,-0.96856 -0.16536,-0.73233 -0.51972,-0.4016 -0.35435,0.59058 -0.21261,0.66146 -0.14174,0.54335 -0.75596,0.23623 -0.49609,0.0709 0.11812,0.54334 z"
                           id="path2022"
                           inkscape:connector-curvature="0" />
                        <path
                           style="fill:#1b3646;fill-opacity:1;stroke:none;stroke-width:0.26458332px;stroke-linecap:butt;stroke-linejoin:miter;stroke-opacity:1"
                           d="m -111.59747,152.21149 h 1.29929 l 0.94495,-0.7087 -0.68509,-0.68508 -1.2048,0.49609 z"
                           id="path2024"
                           inkscape:connector-curvature="0" />
                      </g>
                      <path
                         inkscape:connector-curvature="0"
                         id="path2050"
                         d="m -115.75521,147.27418 2.03162,0.70871 1.74814,-0.28349 1.51191,-0.99218 1.70089,-1.22843 1.18118,-0.51971 2.03162,0.99218 1.46466,0.0945 0.51972,-0.8977 0.33072,-1.03943 -0.0472,-1.27567 -0.8977,0.0472 -0.89769,1.08668 -1.08668,0.42522 -2.22061,-0.94494 -0.61421,0.23624 -1.08668,0.94494 -1.41741,0.28348 -1.46466,-0.0945 -0.0473,0.61422 0.56696,0.7087 -0.7087,0.89769 -1.93713,-0.37797 z"
                         style="fill:#0b1716;fill-opacity:1;stroke:none;stroke-width:0.26458332px;stroke-linecap:butt;stroke-linejoin:miter;stroke-opacity:1" />
                    </g>
                    <path
                       style="fill:#010300;fill-opacity:1;stroke:none;stroke-width:0.26458332px;stroke-linecap:butt;stroke-linejoin:miter;stroke-opacity:1"
                       d="m -113.32228,161.42753 -0.20045,1.9377 1.87089,1.5368 1.33634,-0.73499 1.06908,1.1359 2.07134,0.26727 2.53906,-1.20272 1.87089,-1.46998 1.60361,-2.67269 2.138161,-1.33635 1.469982,-3.80859 -0.534537,-2.33861 1.135893,-2.20497 -0.334087,-1.73725 -0.668173,-0.0668 -0.06682,1.80407 -0.734991,0.26727 -0.267269,2.60587 -0.534538,2.60588 -1.804071,0.40091 -0.73499,1.5368 -0.20045,1.46998 -1.00226,1.5368 -3.00678,2.20497 -2.20498,-0.33408 -2.00452,-2.2718 -0.4009,0.20045 0.46772,2.00453 -1.26953,0.60135 z"
                       id="path2078"
                       inkscape:connector-curvature="0" />
                    <path
                       style="fill:#101617;fill-opacity:1;stroke:none;stroke-width:0.26458332px;stroke-linecap:butt;stroke-linejoin:miter;stroke-opacity:1"
                       d="m -107.57598,156.75031 1.67043,1.26953 1.67044,-0.0668 1.53679,-1.67044 0.93545,-1.40316 0.46772,-2.20498 1.20271,-1.13589 0.448469,-2.18551 0.236233,-1.74814 -0.874072,-1.11031 -0.4016,3.28367 -0.8032,0.51972 -0.4016,-0.21261 -0.73232,2.3151 -0.30711,1.6064 -0.99219,1.27567 -1.25204,0.8032 -1.44104,-0.16536 z"
                       id="path2080"
                       inkscape:connector-curvature="0" />
                  </g>
                  <path
                     inkscape:connector-curvature="0"
                     id="path2111"
                     d="m -107.06176,168.48809 2.92932,0.18899 1.70089,-0.37798 1.32292,-1.5119 1.13393,-2.55134 0.566962,-1.6064 -1.322912,-2.64583 -0.66146,-0.0945 -0.75595,4.06324 -0.66146,1.13393 -1.7009,1.5119 z"
                     style="fill:#08090d;fill-opacity:1;stroke:none;stroke-width:0.26458332px;stroke-linecap:butt;stroke-linejoin:miter;stroke-opacity:1" />
                  <path
                     inkscape:connector-curvature="0"
                     id="path2113"
                     d="m -110.46354,167.5904 9.26042,10.67783 3.496274,3.07105 1.700896,0.61422 1.08668,-0.47248 0.425223,-1.27567 -1.464657,-1.55915 -1.039434,-1.22842 -2.504093,-2.88207 -1.181179,-1.93713 -2.92931,-1.93713 z"
                     style="fill:#0c131b;fill-opacity:1;stroke:none;stroke-width:0.26458332px;stroke-linecap:butt;stroke-linejoin:miter;stroke-opacity:1" />
                  <path
                     inkscape:connector-curvature="0"
                     id="path2115"
                     d="m -99.218749,161.16481 1.559153,-0.23624 1.22842,-1.98438 0.283483,-2.26785 -0.330729,-2.36235 -0.236236,-0.85045 -0.566962,1.37016 0.09449,1.98438 -0.566965,1.74814 z"
                     style="fill:#101c18;fill-opacity:1;stroke:none;stroke-width:0.26458332px;stroke-linecap:butt;stroke-linejoin:miter;stroke-opacity:1" />
                  <path
                     inkscape:connector-curvature="0"
                     id="path2117"
                     d="m -96.400778,153.17558 0.631061,-0.70423 0.141742,-2.19699 -0.07087,-1.88988 -0.992187,-1.84263 -0.448847,-0.23624 0.236235,0.96857 0.283483,1.01581 0.401598,0.87407 0.07087,1.27567 -0.590587,1.77176 z"
                     style="fill:#111c20;fill-opacity:1;stroke:none;stroke-width:0.26458332px;stroke-linecap:butt;stroke-linejoin:miter;stroke-opacity:1" />
                </g>
                <path
                   style="fill:#11191d;fill-opacity:1;stroke:none;stroke-width:0.26458332px;stroke-linecap:butt;stroke-linejoin:miter;stroke-opacity:1"
                   d="m -95.014316,171.85104 v -2.47224 l 0.935442,-2.53906 1.069078,-3.00678 0.534541,-2.07134 0.868624,2.80633 -0.534537,3.4745 -0.668174,2.33861 z"
                   id="path2153"
                   inkscape:connector-curvature="0" />
                <path
                   style="fill:#0c1011;fill-opacity:1;stroke:none;stroke-width:0.26458332px;stroke-linecap:butt;stroke-linejoin:miter;stroke-opacity:1"
                   d="m -96.851794,174.05601 2.906556,4.04246 1.202714,0.10022 0.501129,-0.7684 -0.668174,-1.57021 -0.923183,-1.77184 -1.582469,-1.53561 -1.00226,0.46771 z"
                   id="path2155"
                   inkscape:connector-curvature="0"
                   sodipodi:nodetypes="ccccccccc" />
                <path
                   style="fill:#1f2428;fill-opacity:1;stroke:none;stroke-width:0.26458332px;stroke-linecap:butt;stroke-linejoin:miter;stroke-opacity:1"
                   d="m -98.488819,174.79101 0.300678,-0.50113 0.693909,-0.14396 1.275668,1.39379 0.6024,1.39379 -1.370163,-0.57878 z"
                   id="path2157"
                   inkscape:connector-curvature="0" />
              </g>
              <path
                 inkscape:connector-curvature="0"
                 id="path2197"
                 d="m -102.62053,170.75595 c 0,-0.66146 0,-0.66146 0,-0.66146 h 3.023805 l 2.267858,-1.6064 0.661458,-4.53571 1.889879,-2.74033 0.377979,-4.7247 -0.944941,-2.17336 -0.661458,1.70089 v 2.92931 l -0.472472,2.26786 -1.41741,0.94494 -1.039434,1.88988 -0.755952,2.36236 -2.551342,2.07886 z"
                 style="fill:#131e1f;fill-opacity:1;stroke:none;stroke-width:0.26458332px;stroke-linecap:butt;stroke-linejoin:miter;stroke-opacity:1" />
            </g>
            <path
               style="fill:#1f272b;fill-opacity:1;stroke:none;stroke-width:0.26458332px;stroke-linecap:butt;stroke-linejoin:miter;stroke-opacity:1"
               d="m -93.879836,172.83482 0.425223,-0.42522 0.850447,0.0472 0.944941,2.17336 0.236234,1.22843 -0.992188,-0.8032 z"
               id="path2239"
               inkscape:connector-curvature="0" />
            <path
               style="fill:#0e1116;fill-opacity:1;stroke:none;stroke-width:0.26458332px;stroke-linecap:butt;stroke-linejoin:miter;stroke-opacity:1"
               d="m -91.895461,172.66945 0.04725,-0.68508 0.425223,-0.43703 0.330729,-0.12993 0.425225,0.63783 -0.07087,0.54334 0.566965,0.92132 0.74414,0.81501 0.259858,0.34254 -0.93313,-0.0945 -0.850445,-0.55515 -0.519718,-0.76777 z"
               id="path2243"
               inkscape:connector-curvature="0" />
            <path
               style="fill:#181d23;fill-opacity:1;stroke:none;stroke-width:0.26458332px;stroke-linecap:butt;stroke-linejoin:miter;stroke-opacity:1"
               d="m -90.554256,170.74856 0.484426,-0.53454 0.501131,-0.0501 0.634765,0.71829 0.150339,0.60135 0.701582,1.1192 -1.286235,-0.50113 -0.751694,-0.68488 z"
               id="path2245"
               inkscape:connector-curvature="0" />
          </g>
          <path
             inkscape:connector-curvature="0"
             id="path2291"
             d="m -92.742524,180.27003 1.403165,-2.73951 2.472243,-0.86863 1.069078,-1.26953 0.334086,-1.26953 1.00226,-0.86862 0.935445,-0.33409 0.46772,0.46772 0.06682,1.80407 -0.467722,0.86863 0.601358,0.93544 -0.668174,1.80407 -0.801809,1.26953 -3.407688,0.93544 -0.400904,-0.80181 z"
             style="fill:#182b30;fill-opacity:1;stroke:none;stroke-width:0.26458332px;stroke-linecap:butt;stroke-linejoin:miter;stroke-opacity:1" />
        </g>
        <g
           id="g2356">
          <path
             inkscape:connector-curvature="0"
             id="path2341"
             d="m -90.743374,163.4935 v 3.0736 l -0.734992,3.14042 1.603616,-1.20272 0.267269,-2.67269 -0.06682,-1.60362 z"
             style="fill:#283138;fill-opacity:1;stroke:none;stroke-width:0.26458332px;stroke-linecap:butt;stroke-linejoin:miter;stroke-opacity:1" />
          <path
             inkscape:connector-curvature="0"
             id="path2343"
             d="m -88.933934,169.51243 0.267269,-1.46998 1.336349,0.86863 1.069078,2.00452 -1.5368,-0.26727 z"
             style="fill:#0c1417;fill-opacity:1;stroke:none;stroke-width:0.26458332px;stroke-linecap:butt;stroke-linejoin:miter;stroke-opacity:1" />
          <path
             inkscape:connector-curvature="0"
             id="path2345"
             d="m -87.72591,167.15336 0.248047,-1.85444 0.850444,0.77957 0.685083,1.11031 0.08268,1.15755 -1.145741,-0.2008 z"
             style="fill:#10171d;fill-opacity:1;stroke:none;stroke-width:0.26458332px;stroke-linecap:butt;stroke-linejoin:miter;stroke-opacity:1" />
          <path
             inkscape:connector-curvature="0"
             id="path2347"
             d="m -87.38337,163.38541 0.153553,-1.73632 1.07487,1.61821 0.153554,1.46465 -1.157552,-0.88588 z"
             style="fill:#101820;fill-opacity:1;stroke:none;stroke-width:0.26458332px;stroke-linecap:butt;stroke-linejoin:miter;stroke-opacity:1" />
          <path
             inkscape:connector-curvature="0"
             id="path2349"
             d="m -89.570908,161.28292 0.377979,-0.94494 0.54334,2.59859 0.07087,3.54352 -0.165365,1.06306 -0.590587,0.25986 0.212611,-2.05524 -0.09449,-1.77177 -0.07087,-1.63002 z"
             style="fill:#1f2c34;fill-opacity:1;stroke:none;stroke-width:0.26458332px;stroke-linecap:butt;stroke-linejoin:miter;stroke-opacity:1" />
        </g>
      </g>
    </g>
  </g>
</svg>
