<?xml version="1.0" encoding="UTF-8" standalone="no"?>
<!-- Created with Inkscape (http://www.inkscape.org/) -->

<svg
   xmlns:dc="http://purl.org/dc/elements/1.1/"
   xmlns:cc="http://creativecommons.org/ns#"
   xmlns:rdf="http://www.w3.org/1999/02/22-rdf-syntax-ns#"
   xmlns:svg="http://www.w3.org/2000/svg"
   xmlns="http://www.w3.org/2000/svg"
   xmlns:sodipodi="http://sodipodi.sourceforge.net/DTD/sodipodi-0.dtd"
   xmlns:inkscape="http://www.inkscape.org/namespaces/inkscape"
   width="210mm"
   height="297mm"
   viewBox="0 0 210 297"
   version="1.1"
   id="svg1681"
   inkscape:version="0.92.3 (2405546, 2018-03-11)"
   sodipodi:docname="budgieyellow.svg">
  <defs
     id="defs1675" />
  <sodipodi:namedview
     id="base"
     pagecolor="#ffffff"
     bordercolor="#666666"
     borderopacity="1.0"
     inkscape:pageopacity="0.0"
     inkscape:pageshadow="2"
     inkscape:zoom="0.98994949"
     inkscape:cx="185.7606"
     inkscape:cy="581.45141"
     inkscape:document-units="mm"
     inkscape:current-layer="g919"
     showgrid="false"
     inkscape:window-width="1920"
     inkscape:window-height="986"
     inkscape:window-x="-11"
     inkscape:window-y="-11"
     inkscape:window-maximized="1" />
  <metadata
     id="metadata1678">
    <rdf:RDF>
      <cc:Work
         rdf:about="">
        <dc:format>image/svg+xml</dc:format>
        <dc:type
           rdf:resource="http://purl.org/dc/dcmitype/StillImage" />
        <dc:title></dc:title>
      </cc:Work>
    </rdf:RDF>
  </metadata>
  <g
     inkscape:label="Layer 1"
     inkscape:groupmode="layer"
     id="layer1">
    <g
       id="g2409"
       transform="translate(236.23123,14.544093)">
      <g
         id="g919">
        <g
           id="g2781"
           transform="matrix(-1,0,0,1,-263.06365,0)">
          <path
             sodipodi:nodetypes="ccccccccccccccccccccccccccccccccccccccccccccccccccc"
             inkscape:connector-curvature="0"
             id="path1810"
             d="m -176.37102,124.7568 5.29166,14.45759 0.28349,8.97694 0.14195,2.11362 0.32241,2.20207 0.19676,1.91001 0.85078,2.18427 1.60116,3.87369 2.93456,5.95369 2.21889,4.67448 2.97828,4.30245 4.11863,4.44128 4.76381,3.30723 6.61307,3.15345 7.37205,2.5162 12.76639,1.52047 10.00667,0.18042 6.80357,1.88988 6.80357,-1.13393 3.3073,-2.17336 2.17336,-8.12649 8.12649,-0.94494 4.25223,-1.22842 1.98437,-2.55134 -0.0945,-3.40179 -2.17336,-3.87425 -4.34673,-7.37054 -3.1183,-7.46503 -3.96875,-6.52009 -3.68527,-4.81919 -3.30729,-3.68527 -4.53572,-6.3311 -10.39433,-10.39435 -4.20261,-3.10684 -6.66421,-4.1692 -2.07887,-1.32292 -1.90927,-0.69686 -1.87049,-0.15358 0.7416,6.05832 -0.17463,4.714 -0.66146,6.23661 -2.99277,3.15402 -4.56676,1.66517 -6.99255,-0.28348 -3.40179,3.77976 -4.8192,2.64584 -5.38616,0.18898 -5.10268,-1.79538 -2.62571,-5.22176 -3.89437,-5.17258 z"
             style="fill:#dde66c;fill-opacity:1;stroke:none;stroke-width:0.26458332px;stroke-linecap:butt;stroke-linejoin:miter;stroke-opacity:1" />
          <path
             sodipodi:nodetypes="ccccccccccccccccccccccccccccccccccccccccccccccccccccc"
             inkscape:connector-curvature="0"
             id="path1812"
             d="m -176.37102,124.7568 -1.41742,-3.59077 -1.32291,-6.52009 v -3.40179 l -0.18899,-3.2128 -1.22842,-1.70089 -1.88988,-5.57515 -0.18544,-4.11923 0.13819,-4.57422 1.65365,-4.063244 2.46374,-2.821457 2.59169,-2.61195 3.63802,-2.551339 4.06324,-1.181177 5.95313,-1.133927 3.45606,-0.02292 2.21358,0.589886 3.42878,1.171564 2.14637,1.474269 3.28846,2.474198 1.28972,1.659156 0.38276,1.252807 -0.99219,-0.283484 2.55134,3.02381 0.66146,3.779763 2.66976,1.899288 2.33842,2.352944 1.91304,2.45339 1.01628,1.704343 1.35114,2.64596 0.7048,2.27347 0.77066,3.60299 0.10271,3.19485 0.7416,6.05832 -0.17463,4.714 -0.0341,3.64193 -0.6274,2.59468 -1.1679,1.85522 -1.82487,1.2988 -2.06145,1.18993 -2.50531,0.47524 -3.49344,0.23731 -3.49911,-0.52079 -3.40179,3.77976 -2.06445,1.49936 -2.75475,1.14648 -5.38616,0.18898 -2.61501,-0.3785 -2.48767,-1.41688 -1.99905,-2.56771 -1.47711,-3.41 -3.04392,-4.41663 z"
             style="fill:#e9f0cc;fill-opacity:1;stroke:none;stroke-width:0.26458332px;stroke-linecap:butt;stroke-linejoin:miter;stroke-opacity:1" />
          <ellipse
             transform="matrix(0.87057779,-0.4920308,0.58297933,0.81248698,0,0)"
             ry="3.5622716"
             rx="1.3735147"
             cy="4.1966581"
             cx="-208.35622"
             id="path1818"
             style="opacity:1;fill:#090e12;fill-opacity:1;fill-rule:evenodd;stroke:none;stroke-width:0.51418132;stroke-linecap:butt;stroke-linejoin:round;stroke-miterlimit:4;stroke-dasharray:none;stroke-opacity:1" />
          <ellipse
             transform="matrix(0.96810469,-0.25054602,0.33852861,0.9409561,0,0)"
             ry="3.6185746"
             rx="1.4535239"
             cy="50.432777"
             cx="-167.96599"
             id="path1826"
             style="opacity:1;fill:#090e12;fill-opacity:1;fill-rule:evenodd;stroke:none;stroke-width:0.42158747;stroke-linecap:butt;stroke-linejoin:round;stroke-miterlimit:4;stroke-dasharray:none;stroke-opacity:1" />
          <path
             sodipodi:nodetypes="ccccccccccc"
             inkscape:connector-curvature="0"
             id="path1836"
             d="m -168.43351,109.07079 9.41976,7.37888 6.73872,6.70074 1.8021,-2.21921 -0.44398,-7.13686 -0.89908,-7.11948 0.58039,-5.54157 -4.25223,0.94494 h -5.76414 l -3.21279,3.77977 z"
             style="fill:#cbb43f;fill-opacity:1;stroke:none;stroke-width:0.26458332px;stroke-linecap:butt;stroke-linejoin:miter;stroke-opacity:1" />
          <path
             inkscape:connector-curvature="0"
             id="path1903"
             d="m -170.87991,107.01322 2.4464,2.05757 1.79245,-0.49784 1.87494,-1.49291 1.80407,-2.57247 1.50339,-1.00226 3.04019,-0.46772 2.53906,0.16704 2.40543,-0.50113 1.90429,-0.96885 0.33409,-0.60136 -0.66817,-1.670433 -1.00226,-1.102487 0.25149,-0.772405 -0.051,-1.298936 -0.2977,-1.051649 -0.80479,-1.086507 -0.81853,-0.970513 -0.88531,-0.917078 -1.29347,-0.452523 -1.44605,-0.165538 -2.27179,0.233862 -1.97111,1.436574 -1.26953,1.336347 -0.63477,1.302938 -0.33408,0.868627 -1.60362,-0.734991 -2.13815,-0.03341 -2.03794,0.701582 -1.70384,1.336347 -0.80181,1.469983 -0.26727,2.20497 0.40091,1.70385 0.93544,2.20497 z"
             style="fill:#91b8bd;fill-opacity:1;stroke:none;stroke-width:0.26458332px;stroke-linecap:butt;stroke-linejoin:miter;stroke-opacity:1"
             sodipodi:nodetypes="ccccccccccccccccccccccccccccccccccc" />
          <ellipse
             transform="matrix(0.86300509,-0.50519522,0.65482458,0.7557809,0,0)"
             ry="0.66344076"
             rx="1.1977538"
             cy="0.17252818"
             cx="-196.02678"
             id="path1905"
             style="opacity:1;fill:#5d2c36;fill-opacity:1;fill-rule:evenodd;stroke:none;stroke-width:0.37809187;stroke-linecap:butt;stroke-linejoin:round;stroke-miterlimit:4;stroke-dasharray:none;stroke-opacity:1" />
          <ellipse
             transform="matrix(0.86300509,-0.50519523,0.65482458,0.7557809,0,0)"
             ry="0.66344076"
             rx="1.1977537"
             cy="1.3880798"
             cx="-186.20651"
             id="path1905-9"
             style="opacity:1;fill:#5d2c36;fill-opacity:1;fill-rule:evenodd;stroke:none;stroke-width:0.37809187;stroke-linecap:butt;stroke-linejoin:round;stroke-miterlimit:4;stroke-dasharray:none;stroke-opacity:1" />
          <path
             sodipodi:nodetypes="ccccccccccccccccccccccc"
             inkscape:connector-curvature="0"
             id="path1931"
             d="m -116.05309,132.77022 -0.91972,2.14209 -1.15162,6.67781 -0.33408,8.0849 0.8018,8.88671 3.00679,6.34766 4.94448,7.68399 5.27858,5.01131 4.74403,3.0736 3.20723,1.26953 6.48129,-1.1359 7.55037,-2.00452 1.80406,-2.53906 0.13364,-4.40995 -5.34539,-9.95579 -5.81312,-9.68852 -3.14041,-5.61266 -4.27631,-5.27857 -3.60814,-3.54132 -4.47677,-3.67496 -3.74177,-2.07133 -3.00678,-0.3341 z"
             style="fill:#9ed451;fill-opacity:1;stroke:none;stroke-width:0.26458332px;stroke-linecap:butt;stroke-linejoin:miter;stroke-opacity:1" />
          <path
             inkscape:connector-curvature="0"
             id="path1933"
             d="m -117.2322,144.01814 3.77976,-0.66146 1.27567,-0.94494 1.79538,0.51972 1.65365,-0.66146 2.78757,0.0472 1.79539,-0.28348 0.18899,-0.75596 1.27567,0.0473 0.0472,-1.22842 -0.23623,-1.03944 -0.89769,-0.75595 -0.94494,0.47247 -0.42523,1.37017 -1.5119,0.14174 -1.93713,0.14174 -1.79539,0.85044 -1.79538,-0.0945 -2.07887,0.89769 -1.93713,0.56697 z"
             style="fill:#0e1116;fill-opacity:1;stroke:none;stroke-width:0.26458332px;stroke-linecap:butt;stroke-linejoin:miter;stroke-opacity:1" />
          <path
             inkscape:connector-curvature="0"
             id="path1935"
             d="m -115.34232,138.77372 1.41741,0.51972 1.55915,-0.61421 2.74033,0.37797 2.78757,-0.66145 0.47247,-0.66146 -3.40178,-1.08669 v 0.8977 l -3.68527,-0.0945 -0.28348,0.66145 z"
             style="fill:#122027;fill-opacity:1;stroke:none;stroke-width:0.26458332px;stroke-linecap:butt;stroke-linejoin:miter;stroke-opacity:1" />
          <path
             style="fill:#1c2425;fill-opacity:1;stroke:none;stroke-width:0.26458332px;stroke-linecap:butt;stroke-linejoin:miter;stroke-opacity:1"
             d="m -117.12753,157.50339 1.83747,0.46772 1.5368,-0.20045 1.77066,-0.735 1.43658,-0.33408 0.23386,-0.86863 1.70384,-0.50113 2.27179,-2.60588 1.57021,-2.03793 0.93544,-1.5702 0.40091,-1.67044 -0.13364,-1.20271 0.80181,-0.60136 0.56795,-1.80407 -0.3675,-1.60361 -0.46772,-0.60136 -0.0668,1.5368 -0.63476,1.06908 -0.10023,0.90203 -0.70158,0.735 -0.30068,2.47225 -1.73725,0.66817 -0.63476,2.90656 -1.83748,1.77066 -1.73726,0.56794 -0.73499,1.43658 -1.70384,0.33408 -0.50113,0.93545 -2.63929,-0.50113 z"
             id="path1997"
             inkscape:connector-curvature="0" />
          <path
             inkscape:connector-curvature="0"
             id="path2022"
             d="m -108.70101,149.51442 0.87407,-0.0473 0.8977,-0.82682 0.44884,-0.96856 -0.16536,-0.73233 -0.51972,-0.4016 -0.35435,0.59058 -0.21261,0.66146 -0.14174,0.54335 -0.75596,0.23623 -0.49609,0.0709 0.11812,0.54334 z"
             style="fill:#243039;fill-opacity:1;stroke:none;stroke-width:0.26458332px;stroke-linecap:butt;stroke-linejoin:miter;stroke-opacity:1" />
          <path
             inkscape:connector-curvature="0"
             id="path2024"
             d="m -112.07917,151.61691 h 1.29929 l 0.94495,-0.7087 -0.68509,-0.68508 -1.2048,0.49609 z"
             style="fill:#1b3646;fill-opacity:1;stroke:none;stroke-width:0.26458332px;stroke-linecap:butt;stroke-linejoin:miter;stroke-opacity:1" />
          <path
             inkscape:connector-curvature="0"
             id="path2050"
             d="m -116.87101,147.02919 2.03162,0.70871 1.74814,-0.28349 1.51191,-0.99218 1.70089,-1.22843 1.18118,-0.51971 2.03162,0.99218 1.46466,0.0945 0.51972,-0.8977 0.33072,-1.03943 -0.0472,-1.27567 -0.8977,0.0472 -0.89769,1.08668 -1.08668,0.42522 -2.22061,-0.94494 -0.61421,0.23624 -1.08668,0.94494 -1.41741,0.28348 -1.46466,-0.0945 -0.0473,0.61422 0.56696,0.7087 -0.7087,0.89769 -1.93713,-0.37797 z"
             style="fill:#0b1716;fill-opacity:1;stroke:none;stroke-width:0.26458332px;stroke-linecap:butt;stroke-linejoin:miter;stroke-opacity:1" />
          <path
             inkscape:connector-curvature="0"
             id="path2078"
             d="m -114.62373,160.79358 -0.20045,1.9377 1.87089,1.5368 1.33634,-0.73499 1.06908,1.1359 2.07134,0.26727 2.53906,-1.20272 1.87089,-1.46998 1.60361,-2.67269 2.13816,-1.33635 1.469979,-3.80859 -0.534537,-2.33861 1.135893,-2.20497 -0.334087,-1.73725 -0.668173,-0.0668 -0.06682,1.80407 -0.734995,0.26727 -0.26726,2.60587 -0.53454,2.60588 -1.80407,0.40091 -0.73499,1.5368 -0.20045,1.46998 -1.00226,1.5368 -3.00678,2.20497 -2.20498,-0.33408 -2.00452,-2.2718 -0.4009,0.20045 0.46772,2.00453 -1.26953,0.60135 z"
             style="fill:#010300;fill-opacity:1;stroke:none;stroke-width:0.26458332px;stroke-linecap:butt;stroke-linejoin:miter;stroke-opacity:1" />
          <path
             inkscape:connector-curvature="0"
             id="path2080"
             d="m -108.87743,156.11636 1.67043,1.26953 1.67044,-0.0668 1.53679,-1.67044 0.93545,-1.40316 0.46772,-2.20498 1.20271,-1.13589 0.44847,-2.18551 0.23623,-1.74814 -0.87407,-1.11031 -0.4016,3.28367 -0.8032,0.51972 -0.4016,-0.21261 -0.73232,2.3151 -0.30711,1.6064 -0.99219,1.27567 -1.25204,0.8032 -1.44104,-0.16536 z"
             style="fill:#101617;fill-opacity:1;stroke:none;stroke-width:0.26458332px;stroke-linecap:butt;stroke-linejoin:miter;stroke-opacity:1" />
          <path
             inkscape:connector-curvature="0"
             id="path2111"
             d="m -107.49644,168.02506 2.92932,0.18899 1.70089,-0.37798 1.32292,-1.5119 1.13393,-2.55134 0.566964,-1.6064 -1.322914,-2.64583 -0.66146,-0.0945 -0.75595,4.06324 -0.66146,1.13393 -1.7009,1.5119 z"
             style="fill:#08090d;fill-opacity:1;stroke:none;stroke-width:0.26458332px;stroke-linecap:butt;stroke-linejoin:miter;stroke-opacity:1" />
          <path
             inkscape:connector-curvature="0"
             id="path2113"
             d="m -110.89822,167.12737 9.26042,10.67783 3.496276,3.07105 1.700896,0.61422 1.08668,-0.47248 0.425223,-1.27567 -1.464657,-1.55915 -1.039434,-1.22842 -2.504093,-2.88207 -1.181181,-1.93713 -2.92931,-1.93713 z"
             style="fill:#0c131b;fill-opacity:1;stroke:none;stroke-width:0.26458332px;stroke-linecap:butt;stroke-linejoin:miter;stroke-opacity:1" />
          <path
             inkscape:connector-curvature="0"
             id="path2115"
             d="m -99.653427,160.70178 1.559153,-0.23624 1.22842,-1.98438 0.283483,-2.26785 -0.330729,-2.36235 -0.236236,-0.85045 -0.566962,1.37016 0.09449,1.98438 -0.566965,1.74814 z"
             style="fill:#101c18;fill-opacity:1;stroke:none;stroke-width:0.26458332px;stroke-linecap:butt;stroke-linejoin:miter;stroke-opacity:1" />
          <path
             inkscape:connector-curvature="0"
             id="path2117"
             d="m -96.835456,152.71255 0.631061,-0.70423 0.141742,-2.19699 -0.07087,-1.88988 -0.992187,-1.84263 -0.448847,-0.23624 0.236235,0.96857 0.283483,1.01581 0.401598,0.87407 0.07087,1.27567 -0.590587,1.77176 z"
             style="fill:#111c20;fill-opacity:1;stroke:none;stroke-width:0.26458332px;stroke-linecap:butt;stroke-linejoin:miter;stroke-opacity:1" />
          <path
             inkscape:connector-curvature="0"
             id="path2153"
             d="m -94.448616,171.98728 v -2.47224 l 0.935442,-2.53906 1.069078,-3.00678 0.534541,-2.07134 0.868624,2.80633 -0.534537,3.4745 -0.668174,2.33861 z"
             style="fill:#11191d;fill-opacity:1;stroke:none;stroke-width:0.26458332px;stroke-linecap:butt;stroke-linejoin:miter;stroke-opacity:1" />
          <path
             sodipodi:nodetypes="ccccccccc"
             inkscape:connector-curvature="0"
             id="path2155"
             d="m -96.286094,174.19225 2.906556,4.04246 1.202714,0.10022 0.501129,-0.7684 -0.668174,-1.57021 -0.923183,-1.77184 -1.582469,-1.53561 -1.00226,0.46771 z"
             style="fill:#0c1011;fill-opacity:1;stroke:none;stroke-width:0.26458332px;stroke-linecap:butt;stroke-linejoin:miter;stroke-opacity:1" />
          <path
             inkscape:connector-curvature="0"
             id="path2157"
             d="m -97.923119,174.92725 0.300678,-0.50113 0.693909,-0.14396 1.275668,1.39379 0.6024,1.39379 -1.370163,-0.57878 z"
             style="fill:#1f2428;fill-opacity:1;stroke:none;stroke-width:0.26458332px;stroke-linecap:butt;stroke-linejoin:miter;stroke-opacity:1" />
          <path
             inkscape:connector-curvature="0"
             id="path2197"
             d="m -102.82627,171.00588 c 0,-0.66146 0,-0.66146 0,-0.66146 h 3.023804 l 2.267858,-1.6064 0.661458,-4.53571 1.889879,-2.74033 0.377979,-4.7247 -0.944941,-2.17336 -0.661458,1.70089 v 2.92931 l -0.472472,2.26786 -1.41741,0.94494 -1.039434,1.88988 -0.755952,2.36236 -2.551341,2.07886 z"
             style="fill:#131e1f;fill-opacity:1;stroke:none;stroke-width:0.26458332px;stroke-linecap:butt;stroke-linejoin:miter;stroke-opacity:1" />
          <path
             inkscape:connector-curvature="0"
             id="path2239"
             d="m -93.575336,173.19449 0.425223,-0.42522 0.850447,0.0472 0.944941,2.17336 0.236234,1.22843 -0.992188,-0.8032 z"
             style="fill:#1f272b;fill-opacity:1;stroke:none;stroke-width:0.26458332px;stroke-linecap:butt;stroke-linejoin:miter;stroke-opacity:1" />
          <path
             inkscape:connector-curvature="0"
             id="path2243"
             d="m -91.590961,173.02912 0.04725,-0.68508 0.425223,-0.43703 0.330729,-0.12993 0.425225,0.63783 -0.07087,0.54334 0.566965,0.92132 0.74414,0.81501 0.259858,0.34254 -0.93313,-0.0945 -0.850445,-0.55515 -0.519718,-0.76777 z"
             style="fill:#0e1116;fill-opacity:1;stroke:none;stroke-width:0.26458332px;stroke-linecap:butt;stroke-linejoin:miter;stroke-opacity:1" />
          <path
             inkscape:connector-curvature="0"
             id="path2245"
             d="m -90.249756,171.10823 0.484426,-0.53454 0.501131,-0.0501 0.634765,0.71829 0.150339,0.60135 0.701582,1.1192 -1.286235,-0.50113 -0.751694,-0.68488 z"
             style="fill:#181d23;fill-opacity:1;stroke:none;stroke-width:0.26458332px;stroke-linecap:butt;stroke-linejoin:miter;stroke-opacity:1" />
          <path
             inkscape:connector-curvature="0"
             id="path2291"
             d="m -92.471923,180.07693 1.403165,-2.73951 2.472243,-0.86863 1.069078,-1.26953 0.334086,-1.26953 1.00226,-0.86862 0.935445,-0.33409 0.46772,0.46772 0.06682,1.80407 -0.467722,0.86863 0.601358,0.93544 -0.668174,1.80407 -0.801809,1.26953 -3.407688,0.93544 -0.400904,-0.80181 z"
             style="fill:#182b30;fill-opacity:1;stroke:none;stroke-width:0.26458332px;stroke-linecap:butt;stroke-linejoin:miter;stroke-opacity:1" />
          <g
             id="g2356">
            <path
               style="fill:#283138;fill-opacity:1;stroke:none;stroke-width:0.26458332px;stroke-linecap:butt;stroke-linejoin:miter;stroke-opacity:1"
               d="m -90.743374,163.4935 v 3.0736 l -0.734992,3.14042 1.603616,-1.20272 0.267269,-2.67269 -0.06682,-1.60362 z"
               id="path2341"
               inkscape:connector-curvature="0" />
            <path
               style="fill:#0c1417;fill-opacity:1;stroke:none;stroke-width:0.26458332px;stroke-linecap:butt;stroke-linejoin:miter;stroke-opacity:1"
               d="m -88.933934,169.51243 0.267269,-1.46998 1.336349,0.86863 1.069078,2.00452 -1.5368,-0.26727 z"
               id="path2343"
               inkscape:connector-curvature="0" />
            <path
               style="fill:#10171d;fill-opacity:1;stroke:none;stroke-width:0.26458332px;stroke-linecap:butt;stroke-linejoin:miter;stroke-opacity:1"
               d="m -87.72591,167.15336 0.248047,-1.85444 0.850444,0.77957 0.685083,1.11031 0.08268,1.15755 -1.145741,-0.2008 z"
               id="path2345"
               inkscape:connector-curvature="0" />
            <path
               style="fill:#101820;fill-opacity:1;stroke:none;stroke-width:0.26458332px;stroke-linecap:butt;stroke-linejoin:miter;stroke-opacity:1"
               d="m -87.38337,163.38541 0.153553,-1.73632 1.07487,1.61821 0.153554,1.46465 -1.157552,-0.88588 z"
               id="path2347"
               inkscape:connector-curvature="0" />
            <path
               style="fill:#1f2c34;fill-opacity:1;stroke:none;stroke-width:0.26458332px;stroke-linecap:butt;stroke-linejoin:miter;stroke-opacity:1"
               d="m -89.570908,161.28292 0.377979,-0.94494 0.54334,2.59859 0.07087,3.54352 -0.165365,1.06306 -0.590587,0.25986 0.212611,-2.05524 -0.09449,-1.77177 -0.07087,-1.63002 z"
               id="path2349"
               inkscape:connector-curvature="0" />
          </g>
        </g>
      </g>
    </g>
  </g>
</svg>
